HIERARCHY
ROOT Hips
{
 OFFSET 0.000000 0.000000 0.000000
 CHANNELS 6 Xposition Yposition Zposition Yrotation Xrotation Zrotation
 JOINT Chest
 {
  OFFSET 0.000000 9.585900 0.002600
  CHANNELS 3 Yrotation Xrotation Zrotation
  JOINT Chest2
  {
   OFFSET 0.000000 9.601200 -0.005300
   CHANNELS 3 Yrotation Xrotation Zrotation
   JOINT Chest3
   {
    OFFSET 0.000000 9.561800 0.000000
    CHANNELS 3 Yrotation Xrotation Zrotation
    JOINT Chest4
    {
     OFFSET 0.000000 9.552100 0.000000
     CHANNELS 3 Yrotation Xrotation Zrotation
     JOINT Neck
     {
      OFFSET 0.000000 14.453000 0.000000
      CHANNELS 3 Yrotation Xrotation Zrotation
      JOINT Head
      {
       OFFSET 0.000000 8.936500 -0.011300
       CHANNELS 3 Yrotation Xrotation Zrotation
       End Site
       {
        OFFSET 0.000000 17.073600 -0.006000
       }
      }
     }
     JOINT RightCollar
     {
      OFFSET -2.921100 9.558500 0.000000
      CHANNELS 3 Yrotation Xrotation Zrotation
      JOINT RightShoulder
      {
       OFFSET -13.519700 0.000000 0.000000
       CHANNELS 3 Yrotation Xrotation Zrotation
       JOINT RightElbow
       {
        OFFSET 0.000000 -29.696600 0.000000
        CHANNELS 3 Yrotation Xrotation Zrotation
        JOINT RightWrist
        {
         OFFSET 0.000000 -24.004700 0.000000
         CHANNELS 3 Yrotation Xrotation Zrotation
         End Site
         {
          OFFSET 0.000000 -17.728500 0.000000
         }
        }
       }
      }
     }
     JOINT LeftCollar
     {
      OFFSET 2.921100 9.558500 0.000000
      CHANNELS 3 Yrotation Xrotation Zrotation
      JOINT LeftShoulder
      {
       OFFSET 13.519700 0.000000 0.000000
       CHANNELS 3 Yrotation Xrotation Zrotation
       JOINT LeftElbow
       {
        OFFSET 0.000000 -29.696600 0.000000
        CHANNELS 3 Yrotation Xrotation Zrotation
        JOINT LeftWrist
        {
         OFFSET 0.000000 -24.004700 0.000000
         CHANNELS 3 Yrotation Xrotation Zrotation
         End Site
         {
          OFFSET 0.000000 -17.728500 0.000000
         }
        }
       }
      }
     }
    }
   }
  }
 }
 JOINT RightHip
 {
  OFFSET -7.771700 -0.012900 -0.001300
  CHANNELS 3 Yrotation Xrotation Zrotation
  JOINT RightKnee
  {
   OFFSET 0.000000 -40.869800 0.001200
   CHANNELS 3 Yrotation Xrotation Zrotation
   JOINT RightAnkle
   {
    OFFSET 0.000000 -39.717900 0.002100
    CHANNELS 3 Yrotation Xrotation Zrotation
    JOINT RightToe
    {
     OFFSET 0.000000 -4.965400 11.033500
     CHANNELS 3 Yrotation Xrotation Zrotation
     End Site
     {
      OFFSET 0.000000 -1.423100 5.872300
     }
    }
   }
  }
 }
 JOINT LeftHip
 {
  OFFSET 7.771700 -0.012900 -0.001300
  CHANNELS 3 Yrotation Xrotation Zrotation
  JOINT LeftKnee
  {
   OFFSET 0.000000 -40.869800 0.001200
   CHANNELS 3 Yrotation Xrotation Zrotation
   JOINT LeftAnkle
   {
    OFFSET 0.000000 -39.717900 0.002100
    CHANNELS 3 Yrotation Xrotation Zrotation
    JOINT LeftToe
    {
     OFFSET 0.000000 -4.965400 11.033500
     CHANNELS 3 Yrotation Xrotation Zrotation
     End Site
     {
      OFFSET 0.000000 -1.423100 5.872300
     }
    }
   }
  }
 }
}
MOTION
Frames: 11
Frame Time: 0.008333
0.000000 85.388000 0.000000 0.000000 -5.767877 0.000000 0.000000 11.653817 0.000000 0.000000 -5.885947 0.000000 0.000000 -0.000000 0.000000 0.000000 -0.000000 0.000000 0.000000 12.528835 0.000000 0.000000 0.711642 0.000000 0.000000 -0.000000 0.000000 0.000000 0.000000 -90.000000 0.000000 -2.309062 0.000000 0.000000 2.309062 0.000000 0.000000 -0.000000 0.000000 0.000000 -0.000000 90.000000 0.000000 -2.309062 0.000000 0.000000 2.309062 0.000000 0.000000 8.520406 0.000000 0.000000 1.905762 0.000000 -0.000000 -4.658285 0.000000 0.000000 -0.000000 0.000000 0.000000 8.520406 0.000000 0.000000 1.905762 0.000000 -0.000000 -4.658285 0.000000 0.000000 -0.000000 0.000000
-231.221264 57.755591 -78.825806 159.718230 -6.390661 0.312489 2.747969 6.321335 0.556814 0.106708 0.262788 -0.011619 0.187590 0.461918 -0.020032 2.423175 6.077742 -0.119052 1.522576 17.535066 -0.537730 2.980182 -3.172730 -1.474891 2.636620 9.025843 1.728198 -6.559594 -9.423995 -8.626094 -123.987589 -83.865538 144.756314 -3.514462 2.153213 -33.507601 -4.736396 8.825182 -2.443363 19.724567 -5.030054 -0.243497 142.155275 -80.945273 -165.206357 -1.737032 6.752381 14.726412 -15.261775 -65.274069 8.805219 -37.459312 71.180603 -38.907253 -4.274121 -7.428354 -0.403701 -0.306348 0.783598 -0.150841 2.845817 -68.071282 14.898062 42.543172 65.890082 35.313023 -18.145039 -9.794427 4.039504 -0.182683 -0.963564 -0.089577
-231.222099 57.755582 -78.825332 159.722106 -6.393192 0.318208 2.735908 6.321434 0.554168 0.111069 0.264817 -0.014246 0.178098 0.457560 -0.014487 2.427944 6.077281 -0.121462 1.526304 17.552190 -0.534787 2.986901 -3.142836 -1.469217 2.637348 9.035851 1.730622 -6.567310 -9.422728 -8.630905 -123.967096 -83.865974 144.740828 -3.512729 2.157386 -33.496996 -4.731708 8.833294 -2.440731 19.724748 -5.028908 -0.249361 142.161582 -80.949472 -165.215701 -1.745879 6.757245 14.714489 -15.262842 -65.273903 8.795973 -37.456813 71.184615 -38.903840 -4.275329 -7.430190 -0.404917 -0.300203 0.784039 -0.151300 2.854567 -68.068442 14.880589 42.551286 65.882272 35.317227 -18.148111 -9.771203 4.046174 -0.184459 -0.979191 -0.093637
-231.222343 57.755508 -78.823752 159.706661 -6.391587 0.320654 2.747545 6.315559 0.556135 0.107697 0.267052 -0.013388 0.181165 0.454435 -0.015186 2.427054 6.073453 -0.120249 1.529019 17.580944 -0.521378 2.993124 -3.118364 -1.471955 2.631843 9.046901 1.734190 -6.569668 -9.419220 -8.631034 -123.943964 -83.870917 144.722028 -3.505432 2.151073 -33.488548 -4.729917 8.846124 -2.437298 19.728186 -5.029397 -0.252105 142.140502 -80.954406 -165.200092 -1.754491 6.766081 14.703469 -15.258293 -65.276460 8.802131 -37.432609 71.186186 -38.879505 -4.275900 -7.421523 -0.406842 -0.307406 0.782145 -0.150757 2.862291 -68.068309 14.887000 42.555972 65.879136 35.316228 -18.150813 -9.753149 4.048622 -0.205127 -0.989958 -0.096375
-231.224231 57.755441 -78.822479 159.708538 -6.388944 0.331138 2.743571 6.308875 0.547425 0.104651 0.259724 -0.009869 0.183963 0.459073 -0.017991 2.427000 6.075192 -0.120921 1.531740 17.592294 -0.516502 2.995854 -3.080575 -1.460132 2.626082 9.067226 1.749443 -6.568694 -9.426180 -8.638064 -123.930968 -83.874151 144.710516 -3.499841 2.154309 -33.493441 -4.729782 8.854033 -2.435379 19.722626 -5.024438 -0.237945 142.152306 -80.972378 -165.219001 -1.745614 6.755147 14.705896 -15.244292 -65.282517 8.781976 -37.430271 71.186305 -38.877207 -4.274595 -7.421369 -0.405349 -0.305193 0.783247 -0.153195 2.885826 -68.069560 14.860520 42.555896 65.869469 35.316453 -18.196008 -9.719251 4.049755 -0.189845 -0.993333 -0.095891
-231.222197 57.755562 -78.821362 159.706360 -6.395488 0.320471 2.746948 6.313166 0.559494 0.104012 0.255272 -0.007130 0.183987 0.458118 -0.018012 2.428522 6.075627 -0.122129 1.531254 17.600835 -0.515924 2.999766 -3.040657 -1.443350 2.620192 9.083190 1.756633 -6.585380 -9.409352 -8.642250 -124.019714 -83.858418 144.811853 -3.505056 2.162688 -33.512742 -4.731282 8.864038 -2.433529 19.718241 -5.023211 -0.234628 142.142229 -80.984309 -165.211807 -1.750911 6.757341 14.703845 -15.265381 -65.273587 8.805300 -37.434535 71.186074 -38.878582 -4.269804 -7.414693 -0.404063 -0.300496 0.776970 -0.155216 2.870342 -68.062458 14.880055 42.571892 65.852021 35.332381 -18.190473 -9.692437 4.047459 -0.194280 -0.997837 -0.094408
-231.223493 57.755475 -78.818798 159.703568 -6.386869 0.325577 2.748833 6.299054 0.556731 0.103349 0.257142 -0.006080 0.184155 0.457488 -0.018000 2.431691 6.058186 -0.120482 1.530110 17.627663 -0.513092 3.002791 -3.005258 -1.431378 2.612484 9.112589 1.760386 -6.595246 -9.402636 -8.645132 -124.020570 -83.852390 144.815826 -3.504806 2.158952 -33.521992 -4.734103 8.892498 -2.433344 19.711241 -5.017782 -0.227769 142.125874 -80.986614 -165.194779 -1.749617 6.750268 14.706229 -15.281040 -65.283403 8.816375 -37.411017 71.188423 -38.860374 -4.265354 -7.409406 -0.405014 -0.306766 0.777992 -0.152727 2.902548 -68.067794 14.850714 42.568241 65.831422 35.333081 -18.214444 -9.657922 4.042854 -0.181428 -1.001312 -0.090407
-231.223340 57.755701 -78.818330 159.690315 -6.392916 0.328147 2.759981 6.301013 0.561468 0.104742 0.260234 -0.010374 0.184269 0.457321 -0.017974 2.433583 6.052193 -0.117570 1.535590 17.641692 -0.505251 3.000998 -2.972832 -1.423851 2.608492 9.122389 1.759425 -6.614627 -9.392195 -8.640180 -124.010976 -83.850448 144.809864 -3.506370 2.152606 -33.526864 -4.731712 8.914386 -2.427181 19.708914 -5.016030 -0.229091 142.108727 -80.973414 -165.180834 -1.753032 6.759777 14.702414 -15.266805 -65.277635 8.812558 -37.391431 71.190564 -38.842011 -4.258634 -7.405085 -0.404405 -0.315340 0.776728 -0.154430 2.928366 -68.060026 14.836811 42.560885 65.825359 35.328632 -18.202711 -9.629419 4.042956 -0.205296 -1.006674 -0.093133
-231.224306 57.756012 -78.818694 159.691597 -6.401332 0.337281 2.756141 6.307203 0.553373 0.103482 0.261110 -0.009355 0.184262 0.457098 -0.017948 2.435597 6.053321 -0.119333 1.543653 17.666601 -0.492988 3.000585 -2.960392 -1.419710 2.607944 9.127634 1.770482 -6.637656 -9.386921 -8.640616 -124.021146 -83.850626 144.831348 -3.512730 2.147593 -33.539352 -4.733173 8.925328 -2.421558 19.713426 -4.992028 -0.219410 142.103269 -80.960705 -165.183593 -1.750759 6.769216 14.706807 -15.246210 -65.272141 8.787343 -37.392610 71.192613 -38.841144 -4.264167 -7.408510 -0.405594 -0.311837 0.779090 -0.153715 2.953545 -68.050430 14.809336 42.551131 65.820789 35.320453 -18.215180 -9.592725 4.043684 -0.193124 -1.015285 -0.091900
-231.224441 57.755971 -78.815392 159.677127 -6.390676 0.336218 2.773491 6.296483 0.555527 0.102809 0.260144 -0.010711 0.184601 0.456963 -0.017483 2.437942 6.054141 -0.118028 1.542362 17.673086 -0.489876 3.001107 -2.949628 -1.414310 2.602419 9.134587 1.780244 -6.657989 -9.383171 -8.639061 -124.109619 -83.848559 144.937340 -3.522758 2.147934 -33.559892 -4.739389 8.931422 -2.418588 19.716524 -4.988228 -0.219810 141.942533 -81.008522 -165.024069 -1.751927 6.751944 14.711840 -15.254584 -65.279268 8.808053 -37.361620 71.186192 -38.809361 -4.259444 -7.400601 -0.412280 -0.305178 0.781191 -0.150931 2.965128 -68.060974 14.811977 42.547750 65.812676 35.319181 -18.219619 -9.558993 4.044954 -0.165639 -1.018343 -0.090987
-231.222945 57.756244 -78.814506 159.661125 -6.396943 0.331654 2.794661 6.303105 0.564541 0.098226 0.259645 -0.012700 0.191924 0.458575 -0.015674 2.435148 6.054349 -0.120408 1.540873 17.677342 -0.486272 3.001229 -2.940003 -1.408879 2.585186 9.146072 1.790334 -6.663210 -9.385295 -8.638742 -124.125287 -83.850800 144.956183 -3.519373 2.139629 -33.552656 -4.746584 8.935962 -2.415042 19.721536 -4.984644 -0.220612 141.863483 -81.028386 -164.943180 -1.754731 6.735093 14.712586 -15.252584 -65.270451 8.822304 -37.357738 71.181671 -38.804972 -4.247068 -7.396271 -0.418162 -0.305238 0.782075 -0.144783 2.943246 -68.054118 14.845931 42.572898 65.804371 35.335813 -18.189814 -9.518551 4.045970 -0.182704 -1.045458 -0.095316
